# xmcd CD database file
#
# Track frame offsets:
#	150
#	11437
#	24920
#	39788
#	56462
#	70702
#	79028
#	92964
#	103603
#	112459
#	129670
#	160670
#
# Disc length: 2290 seconds
#
# Revision: 0
# Processed by: cddbd v1.5.2PL0 Copyright (c) Steve Scherf et al.
# Submitted via: CDex 1.70beta3
#
DISCID=8e08f00c
DTITLE=Joscho Stephan - Createur Immobilier
DYEAR=2014
DGENRE=Jazz
TTITLE0=Createur Immobilier 
TTITLE1=Django's Djungle Song 
TTITLE2=Rhapsodie fur Busenschnecke
TTITLE3=Music To Watch Girls By
TTITLE4=Have You Met Miss Jones
TTITLE5=Valzer Ai FunGHi
TTITLE6=So Rare
TTITLE7=Moosmaschinen Blues
TTITLE8=Der Dritte Mann
TTITLE9=Menilmontant
TTITLE10=C'est Si Bon
TTITLE11=Createur Immobilier Swing Version
EXTD=YEAR: 2014
EXTT0=
EXTT1=
EXTT2=
EXTT3=
EXTT4=
EXTT5=
EXTT6=
EXTT7=
EXTT8=
EXTT9=
EXTT10=
EXTT11=
PLAYORDER=
